<svg xmlns="http://www.w3.org/2000/svg" width="100" height="100" viewBox="0 0 100 100">
<g>
<path d="M 17.25,72.34 L 16.80,72.15 L 16.28,71.23 L 16.09,70.68 L 16.09,69.04 L 16.16,68.14 L 16.67,65.83 L 18.03,61.66 L 18.29,60.94 L 19.13,59.35 L 19.59,58.53 L 20.74,56.80 L 21.95,55.07 L 24.87,51.69 L 25.61,50.89 L 27.09,49.45 L 27.81,48.77 L 29.19,47.64 L 29.86,47.13 L 31.03,46.44 L 32.46,46.00 L 32.90,46.00 L 33.87,45.25 L 35.02,43.43 L 35.35,42.58 L 35.73,41.49 L 35.87,41.02 L 35.76,40.47 L 35.62,40.24 L 34.85,39.94 L 32.75,39.47 L 31.72,39.25 L 29.50,38.28 L 28.39,37.73 L 26.27,36.29 L 25.25,35.53 L 23.58,33.89 L 21.99,31.49 L 21.67,30.62 L 21.61,28.50 L 21.68,27.40 L 22.34,25.02 L 22.74,23.82 L 24.02,21.47 L 26.50,18.30 L 27.13,17.67 L 28.37,16.69 L 28.98,16.25 L 30.18,15.63 L 30.77,15.37 L 31.92,15.12 L 32.49,15.03 L 33.57,15.14 L 34.10,15.24 L 35.11,15.70 L 35.60,15.97 L 36.51,16.79 L 36.95,17.24 L 37.76,18.40 L 38.83,20.55 L 39.00,20.96 L 39.27,22.42 L 39.40,23.23 L 39.58,25.29 L 39.75,27.46 L 39.82,32.51 L 39.82,33.75 L 39.75,36.08 L 39.71,37.21 L 39.56,39.11 L 39.47,39.99 L 39.24,41.21 L 38.79,42.00 L 38.57,42.00 L 38.23,42.44 L 38.00,43.50 L 38.00,43.97 L 38.68,44.60 L 40.56,45.00 L 41.28,45.00 L 42.21,45.29 L 42.38,45.38 L 42.55,45.60 L 42.50,46.00 L 42.33,46.27 L 41.39,46.71 L 39.60,47.00 L 39.08,47.00 L 38.01,47.55 L 37.48,47.90 L 36.52,48.98 L 36.08,49.56 L 35.43,50.91 L 35.00,52.98 L 35.00,53.10 L 34.77,53.82 L 34.61,54.25 L 34.13,55.46 L 33.86,56.11 L 33.18,57.66 L 32.03,60.18 L 31.25,61.84 L 29.62,64.67 L 28.80,65.99 L 27.16,68.07 L 26.35,69.01 L 24.80,70.24 L 22.67,71.00 L 22.24,71.00 L 21.39,71.29 L 20.50,72.00 L 20.33,72.27 L 19.99,72.62 L 19.81,72.76 L 19.37,72.87 L 19.13,72.89 L 18.50,72.77 L 18.15,72.68 M 27.13,62.69 L 27.81,61.57 L 29.26,58.67 L 29.98,57.18 L 31.25,54.15 L 31.54,53.42 L 32.03,52.08 L 32.25,51.44 L 32.59,50.35 L 32.73,49.84 L 32.86,49.09 L 32.80,48.47 L 32.74,48.41 L 32.35,48.55 L 32.11,48.66 L 31.41,49.08 L 28.65,51.14 L 27.69,51.93 L 25.92,53.94 L 25.07,55.00 L 23.57,57.46 L 22.87,58.72 L 21.72,61.47 L 20.49,65.77 L 20.33,66.55 L 20.17,67.58 L 20.12,68.02 L 20.25,68.43 L 20.36,68.57 L 20.88,68.49 L 22.20,67.95 L 22.53,67.81 L 23.32,67.20 L 23.74,66.86 L 24.62,65.96 L 25.52,65.01 M 37.27,28.97 L 37.28,27.71 L 37.06,25.48 L 36.92,24.41 L 36.43,22.58 L 36.16,21.73 L 35.46,20.36 L 35.09,19.73 L 34.22,18.86 L 33.77,18.49 L 32.79,18.16 L 32.29,18.06 L 31.25,18.32 L 30.73,18.52 L 29.69,19.41 L 28.18,21.49 L 27.72,22.31 L 26.63,23.89 L 26.36,24.26 L 25.87,24.86 L 25.25,25.49 L 24.97,25.72 L 24.62,26.37 L 24.48,26.72 L 24.40,27.55 L 24.37,28.42 L 25.01,30.43 L 25.42,31.43 L 26.75,33.28 L 29.27,35.27 L 30.17,35.69 L 31.67,36.32 L 32.38,36.60 L 33.53,36.95 L 34.07,37.08 L 34.93,37.11 L 35.33,37.07 L 35.93,36.74 L 36.20,36.52 L 36.59,35.80 L 36.76,35.38 L 36.99,34.22 L 37.09,33.59 L 37.19,31.97 L 37.23,31.09 M 42.00,53.84 L 42.00,53.69 L 42.24,52.99 L 42.40,52.59 L 42.90,51.49 L 45.06,47.39 L 48.13,42.03 L 45.56,38.67 L 44.86,37.75 L 43.75,35.97 L 43.52,35.56 L 43.20,34.88 L 43.00,34.18 L 43.00,33.92 L 43.21,33.40 L 43.35,33.14 L 43.81,32.63 L 44.31,32.13 L 45.83,31.26 L 46.64,30.86 L 48.45,30.35 L 51.06,30.22 L 51.74,30.32 L 52.75,30.34 L 53.21,30.31 L 53.94,29.96 L 54.29,29.73 L 54.94,28.88 L 56.06,26.88 L 56.60,25.83 L 57.43,23.77 L 57.61,23.30 L 57.85,22.50 L 58.00,21.65 L 58.00,21.25 L 58.44,20.47 L 59.50,19.64 L 59.84,19.51 L 60.32,19.64 L 60.53,19.76 L 60.74,20.36 L 60.82,20.72 L 60.78,21.73 L 60.73,22.29 L 60.45,23.66 L 60.28,24.38 L 59.77,26.05 L 59.49,26.92 L 58.78,28.84 L 55.89,35.21 L 55.34,36.30 L 54.74,37.91 L 54.53,38.63 L 54.65,39.63 L 54.81,40.07 L 55.71,40.60 L 58.00,41.02 L 58.94,41.10 L 60.46,41.22 L 61.17,41.26 L 62.34,41.19 L 62.90,41.13 L 63.85,40.73 L 64.31,40.48 L 65.17,39.60 L 65.61,39.09 L 66.50,37.58 L 66.97,36.73 L 68.02,34.43 L 68.59,33.16 L 69.93,29.92 L 70.30,29.05 L 71.10,27.09 L 72.42,23.84 L 73.17,22.01 L 74.79,18.59 L 75.17,17.82 L 75.85,16.58 L 76.65,15.34 L 76.99,14.92 L 77.45,14.44 L 77.64,14.27 L 77.83,14.36 L 77.90,14.49 L 77.87,15.24 L 77.64,17.21 L 77.57,17.72 L 77.16,19.34 L 76.92,20.23 L 76.24,22.40 L 73.57,29.68 L 73.08,30.88 L 72.18,33.15 L 71.76,34.24 L 71.05,36.12 L 70.73,37.00 L 70.28,38.29 L 70.00,39.33 L 70.00,39.46 L 70.59,39.64 L 70.98,39.72 L 72.23,39.80 L 72.92,39.83 L 74.69,39.80 L 77.75,39.63 L 78.86,39.54 L 80.60,39.46 L 81.39,39.43 L 82.50,39.45 L 82.97,39.47 L 83.46,39.58 L 83.62,39.65 L 83.49,39.86 L 83.35,39.97 L 82.62,40.26 L 82.19,40.41 L 80.87,40.77 L 80.13,40.96 L 78.23,41.38 L 74.74,42.07 L 67.99,43.32 L 65.85,49.20 L 65.51,50.11 L 64.89,51.60 L 64.58,52.28 L 64.03,53.29 L 63.76,53.73 L 63.28,54.27 L 63.05,54.48 L 62.67,54.55 L 62.49,54.53 L 62.20,54.13 L 62.07,53.87 L 61.90,53.00 L 61.83,52.51 L 61.77,51.18 L 61.85,48.66 L 62.20,43.00 L 57.11,43.00 L 56.48,43.00 L 55.43,43.01 L 54.94,43.02 L 54.12,43.09 L 53.35,43.18 L 52.21,43.69 L 51.66,44.04 L 50.57,45.31 L 50.28,45.69 L 49.61,46.65 L 48.42,48.43 L 47.55,49.73 L 45.95,51.80 L 45.19,52.73 L 43.91,53.95 L 43.62,54.20 L 43.12,54.51 L 42.88,54.64 L 42.51,54.70 L 42.35,54.69 L 42.13,54.48 L 42.05,54.34 M 50.28,32.17 L 49.58,32.08 L 48.05,32.37 L 46.26,33.31 L 45.93,33.64 L 45.55,34.16 L 45.41,34.42 L 45.42,34.92 L 45.47,35.18 L 45.90,35.80 L 47.04,37.04 L 49.30,39.30 L 51.06,35.90 L 52.83,32.50 L 50.28,32.17 Z" fill="rgba(255,255,255,1)"/>
</g>
</svg>